<svg id="Logo" xmlns="http://www.w3.org/2000/svg" viewBox="0 0 136.01 132.75"><defs><style>.cls-1{fill:#f8991d;fill-rule:evenodd;}</style></defs><polygon points="59.12 0 14.58 25.69 14.58 25.71 14.58 87.41 31.31 97.07 31.31 35.35 59.12 19.3 59.12 0"/><polygon points="76.89 0 76.89 49.15 59.12 49.15 59.12 30.81 42.38 40.47 42.38 103.44 59.12 113.12 59.12 64.11 76.89 64.11 76.89 82.33 93.63 72.67 93.63 9.66 76.89 0"/><polygon points="76.89 113.14 121.43 87.45 121.43 87.43 121.43 25.73 104.7 16.07 104.7 77.79 76.89 93.84 76.89 113.14"/><path class="cls-1" d="M123,115.92c-14.88,11-36.5,16.83-55.09,16.83A99.69,99.69,0,0,1,.6,107.1c-1.4-1.27-.13-3,1.54-2A135.64,135.64,0,0,0,69.45,123a134.25,134.25,0,0,0,51.34-10.5C123.28,111.35,125.41,114.11,123,115.92Z"/><path class="cls-1" d="M129.16,108.87c-1.9-2.45-12.57-1.18-17.41-.59-1.45.18-1.68-1.09-.37-2,8.51-6,22.49-4.25,24.11-2.26s-.45,16-8.41,22.71c-1.22,1-2.4.5-1.85-.86C127,121.35,131.06,111.26,129.16,108.87Z"/></svg>