<svg id="Layer_1" data-name="Layer 1" xmlns="http://www.w3.org/2000/svg" xmlns:xlink="http://www.w3.org/1999/xlink" viewBox="0 0 753.76 753.76"><defs><style>.cls-1{fill:url(#linear-gradient);}.cls-2{fill:url(#linear-gradient-2);}.cls-3{fill:url(#linear-gradient-3);}.cls-4{fill:url(#linear-gradient-4);}</style><linearGradient id="linear-gradient" x1="263.11" y1="204.36" x2="672.75" y2="614" gradientUnits="userSpaceOnUse"><stop offset="0" stop-color="#fff67e"/><stop offset="1" stop-color="#00b498"/></linearGradient><linearGradient id="linear-gradient-2" x1="193.22" y1="69.87" x2="625.14" y2="501.79" xlink:href="#linear-gradient"/><linearGradient id="linear-gradient-3" x1="128.62" y1="251.97" x2="560.54" y2="683.88" xlink:href="#linear-gradient"/><linearGradient id="linear-gradient-4" x1="81.01" y1="139.76" x2="490.65" y2="549.39" xlink:href="#linear-gradient"/></defs><path class="cls-1" d="M753.74,373.19c0,1.23,0,2.46,0,3.69s0,2.46,0,3.69a375.83,375.83,0,0,1-120,272.11q-3.27,3-6.61,6-11.7,10.39-24.23,19.81-3.58,2.68-7.23,5.29t-7.35,5.12q-3.72,2.52-7.48,5c-1.26.81-2.52,1.62-3.79,2.41q-5.7,3.57-11.54,7-3.88,2.25-7.84,4.42c-1.32.72-2.64,1.44-4,2.14q-4,2.12-8,4.14-6,3-12.22,5.86T521,725.22c-2.8,1.16-5.61,2.28-8.44,3.38s-5.67,2.15-8.53,3.17-5.74,2-8.63,3-5.81,1.88-8.73,2.77-5.86,1.74-8.81,2.56a377,377,0,0,1-97.29,13.66,274.7,274.7,0,0,0-1.31-549.36H374.5A172.54,172.54,0,0,0,204.38,374.5a274.7,274.7,0,0,1,549.36-1.31Z"/><path class="cls-2" d="M753.74,373.19a274.7,274.7,0,0,0-549.36,1.31c0,.79,0,1.59,0,2.38s0,1.59,0,2.38A172.54,172.54,0,0,0,374.5,549.38,274.7,274.7,0,0,1,373.19,0l3.69,0,3.69,0C585.79,2,751.77,168,753.74,373.19Z"/><path class="cls-3" d="M631.93,376.88A274.73,274.73,0,0,1,380.57,753.74l-3.69,0-3.69,0a377,377,0,0,1-97.29-13.66c-2.95-.82-5.89-1.68-8.81-2.56s-5.83-1.81-8.73-2.77-5.77-2-8.63-3-5.7-2.08-8.53-3.17-5.64-2.22-8.44-3.38q-6.28-2.6-12.46-5.43t-12.22-5.86q-4-2-8-4.14c-1.32-.7-2.64-1.42-4-2.14q-3.94-2.16-7.84-4.42-5.83-3.37-11.54-7c-1.27-.79-2.53-1.6-3.79-2.41q-3.77-2.43-7.48-5t-7.35-5.12q-3.65-2.61-7.23-5.29-12.52-9.4-24.23-19.81-3.33-3-6.61-6-9.81-9.13-19-18.95-3-3.27-6-6.61-10.39-11.7-19.81-24.23-2.69-3.58-5.29-7.23t-5.12-7.35q-2.52-3.72-4.95-7.48-1.21-1.89-2.41-3.79-3.57-5.7-7-11.54-2.25-3.88-4.42-7.84-1.08-2-2.14-4-2.11-4-4.14-8-3-6-5.86-12.22T28.54,521c-1.16-2.8-2.28-5.61-3.38-8.44S23,506.89,22,504s-2-5.74-3-8.63-1.88-5.81-2.77-8.73-1.74-5.86-2.56-8.81A377,377,0,0,1,0,380.57a274.7,274.7,0,0,0,549.36-1.31c0-.79,0-1.59,0-2.38s0-1.59,0-2.38A172.53,172.53,0,0,0,379.26,204.38a274.65,274.65,0,0,1,252.67,172.5Z"/><path class="cls-4" d="M549.38,379.26A274.7,274.7,0,0,1,0,380.57c0-1.23,0-2.46,0-3.69s0-2.46,0-3.69A377,377,0,0,1,13.68,275.9c.82-2.95,1.68-5.89,2.56-8.81s1.82-5.83,2.77-8.73,1.95-5.77,3-8.63,2.08-5.7,3.17-8.53,2.22-5.64,3.38-8.44q2.61-6.28,5.43-12.46t5.86-12.22q2-4,4.14-8,1.06-2,2.14-4,2.16-3.94,4.42-7.84,3.38-5.83,7-11.54,1.2-1.91,2.41-3.79,2.43-3.77,4.95-7.48T70,158.1q2.61-3.65,5.29-7.23,9.4-12.52,19.81-24.23,3-3.33,6-6.61A375.86,375.86,0,0,1,373.19,0a274.7,274.7,0,0,0,1.31,549.36h4.76A172.53,172.53,0,0,0,549.38,379.26Z"/></svg>